<svg width="140.000000" height="70.000000" viewBox="0 0 140 70" fill="none" xmlns="http://www.w3.org/2000/svg" xmlns:xlink="http://www.w3.org/1999/xlink">
	<desc>
			Created with Pixso.
	</desc>
	<defs>
		<clipPath id="clip167_465">
			<rect width="140.000000" height="70.000000" fill="white" fill-opacity="0"/>
		</clipPath>
	</defs>
	<rect width="140.000000" height="70.000000" fill="#FFFFFF" fill-opacity="0"/>
	<g clip-path="url(#clip167_465)">
		<path d="M140 0L0 0L60.36 65.69C65.63 71.5 74.36 71.5 79.63 65.69L140 0Z" fill="#81B3D3" fill-opacity="1.000000" fill-rule="nonzero"/>
		<path d="M37.23 0.5L69.79 38.4L102.26 0.7L37.23 0.5Z" fill="#23A9E1" fill-opacity="1.000000" fill-rule="nonzero"/>
		<path d="M61.98 14.7L79.53 14.7C78.21 13.9 75.07 10.1 73.44 11.5C73.34 11.6 68.47 5.8 65.33 8.6C62.59 11.1 61.27 8.3 58.23 10.2C54.57 12.6 60.26 13.9 61.98 14.7ZM89.07 11.2L79.13 11.3C83.08 6.8 84.81 7.3 89.07 11.2Z" fill="#FFFFFF" fill-opacity="1.000000" fill-rule="nonzero"/>
		<path d="M99.01 3.6L99.01 1.2L101.14 1.2L99.01 3.6ZM49.1 13C49.2 13.1 51.53 10.6 55.28 8.1C58.73 5.8 64.01 3.2 69.89 3.2C75.78 3.2 81.15 5.9 84.6 8.2C88.36 10.6 90.69 13 90.79 13.1L88.26 16.1C83.69 16.7 80.44 20 75.98 19.29C73.75 18.9 73.65 17.7 73.04 16.4C72.53 15.4 71.72 15.6 70.71 15.2C69.79 14.8 69.18 14.1 67.26 14.5C65.63 14.9 65.43 17.4 63.3 17.29C62.18 17.2 62.08 15.7 60.46 13.7C56.3 8.8 52.51 9.41 49.87 13.91L49.1 13ZM40.57 1.2L40.57 3.1L38.95 1.2L40.57 1.2ZM95.26 1.2L98.5 1.2L98.5 4.19L95.26 8L95.26 1.2ZM91.1 12.6L91.1 1.2L94.65 1.2L94.65 8.6L91.1 12.6ZM90.59 2.2L90.59 12.1C89.47 11 88.26 10 86.94 9.1L90.59 2.2ZM86.43 1.9L86.43 8.7C85.92 8.39 85.52 8 84.91 7.7C84.2 7.3 83.49 6.8 82.68 6.4L86.43 1.9ZM81.97 1.7L81.97 6C80.95 5.5 79.84 5 78.82 4.5L81.97 1.7ZM82.57 1.2L86.33 1.2L82.57 5.8L82.57 1.2ZM86.94 1.2L90.59 1.2L86.94 8.3L86.94 1.2ZM78.01 1.2L81.97 1.2L78.42 4.3C78.31 4.3 78.21 4.19 78.11 4.19L78.01 1.2ZM77.5 1.6L77.5 4C76.49 3.6 75.47 3.3 74.36 3.1L77.5 1.6ZM73.24 1.6L73.24 2.9C72.53 2.8 71.82 2.7 71.01 2.6L73.24 1.6ZM66.34 1.6L68.57 2.6C67.76 2.6 67.05 2.7 66.34 2.9L66.34 1.6ZM62.18 1.6L65.33 3.1C64.21 3.3 63.2 3.6 62.18 4L62.18 1.6ZM65.84 2.8L62.49 1.2L65.84 1.2L65.84 2.8ZM69.39 2.4L66.55 1.1L69.39 1.1L69.39 2.4ZM70.1 1.2L73.04 1.2L70.1 2.5L70.1 1.2ZM73.85 1.2L77.1 1.2L73.85 2.8L73.85 1.2ZM61.27 4.3L57.72 1.2L61.68 1.2L61.68 4.19L61.27 4.3ZM57.62 1.7L60.76 4.4C59.65 4.8 58.63 5.3 57.62 5.9L57.62 1.7ZM53.26 1.9L56.91 6.4C55.59 7.1 54.37 7.9 53.26 8.8L53.26 1.9ZM49 2.2L52.65 9.2C51.33 10.2 50.11 11.2 49 12.4L49 2.2ZM52.75 8.2L49.1 1.1L52.75 1.1L52.75 8.2ZM57.11 5.7L53.36 1.1L57.11 1.1L57.11 5.7ZM44.33 7.5L41.08 3.7L41.08 1.2L44.33 1.2L44.33 7.5ZM44.94 1.2L48.49 1.2L48.49 12.4L44.94 8.2L44.94 1.2ZM36.52 0L36.52 14.6L70 54.5L103.47 15L103.47 0L36.52 0Z" fill="#491213" fill-opacity="1.000000" fill-rule="nonzero"/>
		<path d="M67.36 46L70 41.8L72.63 46L70 50.2L67.36 46Z" fill="#23A9E1" fill-opacity="1.000000" fill-rule="nonzero"/>
		<path d="M75.27 30.6C71.82 28.6 72.63 27.1 75.47 25.7C76.99 25 80.34 22.3 81.66 23.2L75.27 30.6ZM72.94 33.09C70.91 33 68.57 32.7 66.55 33.2C67.76 33.5 70.81 34.4 67.97 35.09C68.98 36.5 70.6 36.4 71.62 35.2C71.21 35 70.91 34.7 70.6 34.5C71.72 34.2 72.73 33.59 72.94 33.09ZM74.15 31.5C73.24 30.7 72.23 30.7 71.42 31.5C70.2 29.4 65.94 30.1 63.91 29.8C65.02 32.4 73.65 32.9 74.15 31.5ZM67.26 29.3C65.63 28.8 60.36 28.9 63.81 27.5C64.92 27.1 70.6 27.6 67.26 29.3ZM69.28 26.3C68.78 25.2 69.69 23.9 71.01 24.9C72.23 25.7 70.4 26.9 69.28 26.3ZM66.34 26.4C64.01 27.1 60.97 25.6 64.72 24.9C67.05 24.4 69.49 25.4 66.34 26.4ZM63.71 20.2C63.2 21.8 62.18 22.1 62.28 20.2C62.39 17.9 63.91 18.5 65.53 17.6C66.85 16.9 67.56 14.2 69.89 15.8C70.91 16.5 72.13 15.9 72.43 17C72.43 16.9 69.49 23.7 71.11 23.7C67.86 23.7 69.28 19.9 70.5 17.29C69.28 17.9 67.36 21.6 68.98 22.3C68.17 23.4 65.53 24.9 64.21 23.8C63.1 22.8 63.71 21.5 63.71 20.2ZM59.65 23C53.97 23 57.82 14.4 59.75 14.9C61.98 15.6 61.68 23.1 59.65 23ZM53.36 14.8C50.72 14.7 51.84 12.2 53.66 11.7C55.39 11.2 58.94 12.8 60.15 13.9C58.33 14.5 55.99 14.4 53.97 14.5C53.76 12.5 53.26 13.2 53.36 14.8Z" fill="#DC6243" fill-opacity="1.000000" fill-rule="nonzero"/>
		<path d="M72.84 25.8C69.89 22.8 77.2 23.1 78.42 22C79.23 22.3 85.52 16.6 87.04 17C85.92 18.29 83.59 22.3 81.97 22.3C80.65 22.3 79.33 22.1 78.31 23C76.79 24.4 74.36 25.1 72.84 25.8Z" fill="#F49774" fill-opacity="1.000000" fill-rule="nonzero"/>
		<path d="M73.75 22.2C72.13 23.1 70.6 19.7 73.44 20C75.27 20.2 77.2 19.79 78.92 20.1C77.6 21.6 75.78 22.4 73.75 22.2Z" fill="#F4B1A4" fill-opacity="1.000000" fill-rule="nonzero"/>
		<path d="M51.84 20.9C52.14 21.3 52.44 21.7 52.34 22.3C52.34 22.7 51.73 23.3 52.14 23.5L53.66 21.7C53.26 21.6 50.11 17.9 50.11 17.5L47.98 18.6C48.08 19 48.79 18.6 49.2 18.6C49.71 18.6 50.11 19 50.52 19.29C49.4 20.2 46.66 22.6 46.36 22.6C46.26 22.6 45.65 22.2 45.65 22.6C45.65 22.8 46.26 23.3 46.36 23.4L47.78 25.1C48.18 24.9 47.68 24.6 47.88 24.3C47.98 24.1 51.13 21.6 51.84 20.9ZM48.39 16.4C48.69 16.29 48.79 16.7 49 16.4L47.37 14.5C47.17 14.2 46.86 13.9 46.86 14.5C46.97 14.9 42.81 18.2 42.6 18.29C42.3 18.4 42.1 18 41.89 18.4C42.4 19 42.81 19.5 43.31 20.1C43.52 20.29 43.62 20.5 43.82 20.7C44.02 20.9 43.92 20.29 43.92 20.29C43.82 20 44.23 19.7 44.53 19.5C45.55 18.5 48.08 16.4 48.39 16.4ZM42.6 15.8C41.49 16.1 40.17 15.7 39.86 14.5C39.46 13.3 40.27 12.1 41.18 11.4C42.1 10.7 43.52 10.8 44.02 11.9C44.23 12.4 44.13 13 43.92 13.5C43.82 13.8 43.52 14.1 43.92 14.3C44.53 13.6 45.04 12.9 45.65 12.2C44.94 11.8 44.63 11.1 44.13 10.5C43.52 9.79 42.81 9.09 41.79 8.99C39.86 8.69 38.14 10.7 37.94 12.4C37.84 13.3 38.14 14.2 38.75 15C39.26 15.6 39.97 16.1 40.37 16.79C40.57 16.9 42.2 16.1 42.5 16C42.71 16 42.6 15.9 42.6 15.8ZM68.47 39.4C67.76 38.9 65.84 36.4 65.43 35.9L65.23 35.59L65.02 35.7C64.92 35.8 65.13 36.09 65.02 36.3C64.52 37.09 61.27 39.5 61.07 39.7C60.66 39.9 60.26 39.59 60.05 39.9C60.56 40.5 61.88 42.2 62.08 42.2C62.39 42.2 62.18 41.7 62.18 41.6C62.28 41.4 63.91 40 64.52 39.5C64.72 39.3 64.92 39.8 65.13 40C65.33 40.3 65.43 40.7 65.33 41C65.23 41.2 64.82 41.6 65.13 41.8C65.53 41.3 66.65 40 66.85 39.8C67.05 39.59 66.44 39.8 66.55 39.7C66.34 39.8 66.04 39.9 65.84 39.7C65.73 39.7 65.13 39 65.23 38.9C65.53 38.7 65.84 38.3 66.24 38.2C66.85 38.09 67.26 39.2 67.36 39.59C67.46 40 67.46 40.4 67.26 40.7C67.15 41 66.95 41.2 67.26 41.3L68.68 39.4C68.68 39.5 68.57 39.5 68.47 39.4ZM59.14 30.5C58.43 30.5 57.72 30.8 57.11 31.3C55.69 32.5 55.49 34.59 56.6 36.09C57.92 37.8 60.05 38 61.78 36.8C63.2 35.59 63.4 33.5 62.28 32C61.47 31 60.26 30.5 59.14 30.5ZM60.36 31.9C61.27 31.8 61.88 32.7 61.47 33.7C61.07 34.7 60.05 35.7 59.04 36.09C57.82 36.59 57.01 35.59 57.52 34.4C57.92 33.4 58.94 32.4 59.95 32C60.05 32 60.15 31.9 60.36 31.9ZM57.52 27.3C57.82 27.3 58.13 27.7 58.33 27.3L56.91 25.6C56.5 25.8 56.91 26 56.81 26.2C56.6 26.5 55.08 26.7 54.68 26.8C54.78 26.4 55.28 25.1 55.49 25C55.89 24.7 56.1 25.3 56.3 24.9L54.47 22.8C54.27 22.6 54.07 22.1 53.86 22.4C53.86 22.4 53.86 23.4 53.76 23.5C53.66 23.7 53.15 25.9 52.55 26.4C52.24 26.7 51.02 27.7 50.72 27.8C50.42 27.9 50.21 27.4 49.91 27.8L51.53 29.7C51.63 29.8 51.94 30.3 52.04 30.3C52.34 30.4 52.04 29.7 52.14 29.6C52.24 29.3 53.76 27.8 54.47 27.7C55.39 27.5 56.5 27.2 57.52 27.3ZM82.07 34C82.17 34.4 82.27 34.9 82.17 35.3C82.07 35.9 81.56 37.2 80.75 36.8C79.94 36.4 79.33 35.7 78.62 35.09C79.13 34.5 79.63 34 80.55 34.3C80.75 34.4 80.95 34.3 80.75 34.09C80.44 33.9 78.72 32.8 78.62 32.9C78.42 33.09 78.92 33.5 78.72 33.9C78.62 34.2 78.31 34.4 78.11 34.7C77.6 34.3 76.89 33.9 77.4 33.2C77.81 32.8 78.21 32.4 78.82 32.3C79.23 32.2 80.04 32.59 80.14 32.2C79.43 31.9 78.72 31.5 78.01 31.2C78.11 31.7 75.78 34.09 75.27 34.7C75.17 34.8 74.86 35.09 74.86 35.2C74.86 35.5 75.27 35.3 75.27 35.3C75.57 35.2 79.73 38.59 79.84 38.9C79.94 39.09 79.73 39.3 79.84 39.4C79.84 39.4 79.94 39.5 80.04 39.5C80.34 39.2 82.98 35.59 83.59 35.5C83.08 34.7 82.57 33.9 82.07 33.09C81.66 33.3 81.97 33.8 82.07 34ZM78.01 38.4C76.69 37.5 74.36 39.2 73.95 39.4C73.24 39.7 72.73 39 73.14 38.4C73.44 37.9 74.05 37.59 74.66 37.59C74.86 37.59 75.57 37.7 75.57 37.59C75.68 37.5 75.68 37.5 75.57 37.4C74.97 37 74.46 36.59 73.85 36.3C73.75 37 72.94 37.4 72.53 37.9C72.02 38.5 71.52 39.2 71.52 39.9C71.52 40.59 71.92 41.3 72.63 41.6C73.34 42 74.15 41.7 74.86 41.3C75.27 41 75.68 40.7 76.08 40.5C76.69 40.2 77.6 40.5 77.4 41.3C77.2 42 76.49 42.6 75.78 42.8C75.37 42.9 74.97 42.9 74.56 42.7C74.26 42.6 73.95 42.2 73.75 42.6L76.08 44.2C76.18 43.7 76.39 43.5 76.79 43.2C77.3 42.8 77.71 42.3 78.11 41.8C78.92 40.9 79.23 39.3 78.01 38.4ZM95.86 10.3L94.95 11.3L94.14 12.3C93.94 12.5 93.84 12.6 94.14 12.8C94.65 12.5 97.69 17.6 97.49 18.29C96.98 18.5 92.92 15 92.82 14.8C92.82 14.7 93.02 14.1 92.72 14.2C92.62 14.2 92.21 14.8 92.11 14.9L91.5 15.6C91.71 15.9 91.81 15.6 92.11 15.6C92.31 15.7 93.33 16.5 93.63 16.7C93.13 16.7 91.91 16.79 91.71 16.79C91.1 16.9 91.4 16.4 91 16.2L89.47 18L88.56 19C88.56 19 88.56 19 88.56 19.1C88.76 19.29 88.66 19.2 88.97 19.1C89.27 19 93.33 22.3 93.43 22.5C93.63 22.8 93.33 23.1 93.73 23.3L94.95 21.9C95.05 21.8 95.05 21.8 94.95 21.8C94.65 21.6 94.65 21.9 94.24 21.9C93.94 21.8 91.3 19.7 90.39 18.9L95.76 18.7C95.97 18.7 96.47 19.29 96.47 19.5C96.37 19.7 96.17 19.9 96.47 20C96.78 19.6 97.08 19.29 97.39 18.9L97.49 18.7C97.59 18.7 97.59 18.6 97.59 18.5L97.69 18.4C98 18.1 98.91 17.1 98.81 17C98.5 16.7 98.4 17.29 98 17C97.79 16.79 97.18 15.8 97.08 15.6C96.88 15.3 97.49 15 97.69 14.9C98.2 14.6 99.82 14.1 100.02 15.1C100.02 15.3 99.82 15.5 99.92 15.6C99.92 15.6 100.02 15.8 100.13 15.7L102.26 13.1C102.15 13 102.15 13 102.05 12.9C101.55 13.4 96.47 11.4 96.17 11.1C96.07 10.9 96.07 10.3 95.86 10.3ZM95.66 12.9C96.47 13.2 97.18 13.5 98 13.9C97.79 14 97.59 14.1 97.39 14.2C97.18 14.3 96.98 14.5 96.78 14.7L95.66 12.9ZM88.97 20.6C87.85 20.5 86.73 21 85.92 21.9C84.71 23.4 84.81 25.6 86.33 26.8C87.85 28 90.08 27.7 91.3 26.3C92.52 24.8 92.42 22.6 90.89 21.4C90.39 21 89.68 20.7 88.97 20.6ZM87.55 22.2C88.15 22.2 88.86 22.6 89.27 22.9C90.08 23.4 91.5 24.6 90.79 25.6C90.79 25.5 90.89 25.5 90.69 25.7C89.88 26.5 88.46 25.8 87.75 25.2C87.04 24.7 85.72 23.5 86.53 22.5C86.84 22.3 87.14 22.2 87.55 22.2ZM84.4 26.5C83.18 26.4 81.97 27 81.05 28.1C80.44 28.9 79.73 29.6 79.13 30.4C79.33 30.7 79.63 30.3 79.94 30.5C80.24 30.7 84.1 33.8 84.1 34C84.2 34.3 83.89 34.4 84.2 34.59C84.3 34.7 87.14 31.2 87.44 30.6C87.85 29.5 87.55 28.2 86.63 27.4C85.82 26.8 85.11 26.5 84.4 26.5ZM83.28 28.1C83.39 28.1 83.49 28.1 83.59 28.1C85.01 28.5 87.04 30.2 85.72 31.7C85.52 31.9 85.72 31.7 85.31 32.09C85.11 32.3 81.05 29.1 81.26 28.9C81.66 28.4 82.57 28 83.28 28.1Z" fill="#FFFFFF" fill-opacity="1.000000" fill-rule="nonzero"/>
	</g>
</svg>
