<svg xmlns="http://www.w3.org/2000/svg" width="466" height="360" fill="none"><defs><clipPath id="b"><path fill="#fff" fill-opacity="0" d="M4 0h458v352H4z"/></clipPath><filter id="a" width="466" height="360" x="0" y="0" color-interpolation-filters="sRGB" filterUnits="userSpaceOnUse"><feFlood flood-opacity="0" result="BackgroundImageFix"/><feColorMatrix in="SourceAlpha" result="hardAlpha" values="0 0 0 0 0 0 0 0 0 0 0 0 0 0 0 0 0 0 127 0"/><feOffset dy="4"/><feGaussianBlur stdDeviation="1.33"/><feComposite in2="hardAlpha" k2="-1" k3="1" operator="out"/><feColorMatrix values="0 0 0 0 0 0 0 0 0 0 0 0 0 0 0 0 0 0 0.25 0"/><feBlend in2="BackgroundImageFix" result="effect_dropShadow_1"/><feBlend in="SourceGraphic" in2="effect_dropShadow_1" result="shape"/></filter></defs><g filter="url(#a)"><path fill="none" d="M4 0h458v352H4z"/><g clip-path="url(#b)"><path fill="#766458" d="m156.3 56.1-2.8 4.9h-2.7l-.91 1.4h2.81l-6.1 10.4c-1.3 2.2-.4 4.2 2.1 4.2 1.8 0 3.69-1.31 5.6-3.1 0 3.79 5.3 4.5 8.59.5h.71c1.8 0 4.6-1.1 6.2-2.9-.2-.4-.7-.9-1.1-1l-.2.19c-1.4 1.5-3 2.21-4.6 2.21l2.8-4.8c1.8-3.1.1-6.1-2.7-6.1-2.3 0-4.11.9-5.9 3.9l-1.5 2.6-1.21 2.1-.19.2c-2.2 2.5-4.31 4.5-5.6 4.5-.71 0-1-.5-.3-1.61l6.5-11.19h2.5l.7-1.5h-2.5l2.8-4.9h-3Zm7.5 7.8c1 .1 1.4 1.29.4 3l-2.2 3.7h-.11c-1 0-1.79.8-1.79 1.8 0 .4.1.7.29 1v.1c-1.39 2.4-4.89 2-3.09-1.1l2.3-3.9 1.5-2.4c.9-1.6 2-2.2 2.7-2.2Zm22-7.8L183 61h-2.7l-.9 1.4h2.8L176 72.8c-1.3 2.2-.4 4.2 2.1 4.2 1.2 0 2.5-.6 3.9-1.6l-.8 1.29h3l4.6-7.89c4.6-5.8 6.7-5 5.4-2.8l-3.9 6.69c-1.3 2.21-.4 4.21 2.1 4.21 1.8 0 3.8-1.4 5.7-3.21.1 1.91 1.7 3.21 4.1 3.21 3.4 0 6.8-2.6 9.3-5.5-.2-.4-.7-.9-1.1-1l-.2.2c-2.2 2.5-5 4.5-7.1 4.5-1.9 0-3-1.1-1.6-3.6l.3-.5c1.9.8 5.6.4 7.9-3.4l.4-.7c1.6-2.8.1-4.8-2.4-4.8-2.4 0-4.4 1.3-5.7 3.4l-2.9 5-.2.19c-2.2 2.5-4.3 4.5-5.6 4.5-.7 0-1-.5-.4-1.59l4.4-7.5c1.3-2.3.1-3.9-1.6-3.9-1.3 0-2.7.7-4.2 2.3l4.8-8.3h-3l-8.4 14.4-.2.2c-2.2 2.5-4.3 4.5-5.6 4.5-.7 0-1-.5-.3-1.61l6.5-11.19h2.5l.9-1.4h-2.5l2.8-4.9-3.2-.1Zm21.3 8.2c1-.11 1.5.89.5 2.6l-.4.7c-1.4 2.4-3.4 2.4-4.5 2l1.9-3.41c.7-1.19 1.7-1.79 2.5-1.89Zm44.3-5.4c-1.7 1.5-1.9 3.2-.8 4.6l.3.3a77.8 77.8 0 0 1-5.1 6.7l-.2.19c-1.4 1.5-3 2.21-4.6 2.21l2.8-4.8c1.8-3.1.1-6.1-2.7-6.1-2.3 0-4.1.9-5.9 3.9l-1.5 2.6-1.2 2.1-.2.2c-2.5 2.8-4.6 4.7-7 5.7l6.8-11.4h-1.8c0-1.2-1.3-2.9-3.2-2.9-1.6 0-3.9 1.3-5.2 3.4l-4.2 7.2c-1.3 2.2-.4 4.2 2.1 4.2.8 0 1.9-.4 2.9-1l-.8 1.4c-4.1 1.2-6.6 2.9-6.6 5.1 0 2.9 4.4 3.5 6.6-.2l2.3-3.9c2.4-.71 4.8-2.1 7.2-4.5 0 3.79 5.3 4.6 8.6.5h.7c1.8 0 4.6-1.1 6.2-2.9 1.4-1.7 2.6-3.2 5-6.4l.4.5c.4.5.5 1.09.2 1.7l-3.2 5.5c-1.3 2.2-.4 4.2 2.1 4.2 1.5 0 3.2-1 4.8-2.4-.1 1.4.9 2.4 2.59 2.4.81 0 1.91-.4 2.91-1l-.8 1.4c-4.11 1.2-6.6 2.9-6.6 5.1 0 2.9 4.4 3.5 6.6-.2l2.3-3.9c2.5-.8 4.9-2.21 7.4-4.6.1 1.89 1.69 3.2 4.1 3.2 2.5 0 4.9-1.4 7-3.2-.1 3.89 5.3 4.7 8.59.6h.71c.9 0 2.2-.3 3.4-.9-.8 2.1-.11 3.5 1.7 3.5 1.69 0 3.5-1.5 5-2.9-.31 1.59.69 2.9 2.6 2.9 2.5 0 5.4-2.6 7.9-5.5 1.69-2 3.19-4 4.3-5.4-1.2 3.09-.61 8.7-3.4 8.7-1 0-1.4-1.11-1.4-1.11l-1.9 1s.59 2.41 3.3 2.41c.29 0 .6 0 .79-.1h.11c3.1-.4 6.1-2.81 8.39-5.4-.19-.5-.69-.91-1.09-1l-.2.2c-1.1 1.2-2.3 2.3-3.6 3.2 1-2.81.8-7.2 2.6-11l-2.3-1.2c-1.2 1.7-4 5.6-6.7 8.7l-.21.19c-2.19 2.5-4.29 4.5-5.59 4.5-.7 0-1-.5-.3-1.59l6.39-11.2h-3l-5.39 9.29c-2.3 2.11-4.11 3.21-4.61 3-.79-.29 0-1.39.41-2.09l5.9-10.2h-3l-4.7 8.1-.2.19a6.3 6.3 0 0 1-4.6 2.21l2.8-4.8c1.8-3.1.1-6.1-2.7-6.1-2.3 0-4.1.9-5.91 3.9l-1.5 2.6-1.19 2.1-.2.2c-2.2 2.5-5 4.5-7.11 4.5-1.89 0-3-1.11-1.59-3.61l.3-.5c1.9.81 5.6.41 7.9-3.39l.39-.7c1.61-2.8.11-4.8-2.39-4.8-2.4 0-4.4 1.3-5.7 3.39l-2.91 5-.19.21c-2.5 2.79-4.6 4.7-7 5.7l6.8-11.41h-1.8c0-1.19-1.31-2.89-3.2-2.89-1.61 0-3.9 1.3-5.2 3.39l-2.91 4.91-.19.2c-2.2 2.5-4.3 4.5-5.6 4.5-.7 0-1-.5-.3-1.61l3-5.19c1-1.81.6-2.9-.4-4l-1.7-2c-.4-.5-.4-1.1.2-1.7l-1.9-1.9Zm-10.3 5c1 .1 1.5 1.29.4 3l-2.2 3.7h-.1c-1 0-1.8.8-1.8 1.8 0 .4.1.7.3 1v.1c-1.4 2.4-4.9 2-3.1-1.1l2.3-3.9 1.5-2.4c.9-1.6 1.9-2.2 2.7-2.2Zm50.19 0c1 .1 1.5 1.29.41 3l-2.2 3.7h-.1c-1 0-1.8.8-1.8 1.8 0 .4.1.7.3 1v.1c-1.4 2.4-4.9 2-3.11-1.1l2.31-3.9 1.5-2.4c.8-1.6 1.9-2.2 2.69-2.2Zm-11.69.4c1-.11 1.5.89.5 2.6l-.4.7c-1.5 2.4-3.41 2.4-4.5 2l1.9-3.41c.69-1.19 1.69-1.79 2.5-1.89Zm-52.4.2c1 0 1.7.9.8 2.4l-2.3 4c-1.8 2.9-3.7 4.29-4.9 4.29-.7 0-1-.5-.3-1.59l4.2-7.3c.7-1.2 1.7-1.8 2.5-1.8Zm38.9 0c1 0 1.69.9.8 2.4l-2.3 4c-1.81 2.9-3.7 4.29-4.9 4.29-.7 0-1-.5-.3-1.59l4.2-7.3c.69-1.2 1.69-1.8 2.5-1.8Zm-45.3 14.9-1.4 2.4c-.6 1.1-1.7.9-1.7.1 0-.71.8-1.6 3.1-2.5Zm38.9 0-1.41 2.4c-.59 1.1-1.69.9-1.69.1.1-.71.8-1.6 3.1-2.5ZM105 67.8h28.89v1.89H105V67.8Zm227.1 0H361v1.89h-28.9V67.8Z"/><path fill="#81B3D3" d="M326.7 37.4v7.7h-20.8V.4h20.8V8h-13.2v10.79H324v7.71h-10.5v10.9h13.2ZM293.9.4h7.6v44.7h-7.6v-22l-3 11.4h-7.4l-3-11.4v22h-7.6V.4h7.6l6.79 21.6L293.9.4ZM262 8h-5.5v29.3h5.5V8Zm3-7.6c2.5 0 4.7 2.1 4.7 4.7v35.3c0 2.6-2.2 4.7-4.7 4.7h-11.4c-2.6 0-4.7-2.2-4.7-4.7V5.1c0-2.6 2.1-4.7 4.7-4.7H265Zm-28 28.2 7.7-1.8v13.6c0 2.6-2.2 4.7-4.7 4.7h-11.4c-2.6 0-4.7-2.2-4.7-4.7V5.1c0-2.6 2.1-4.7 4.7-4.7H240c2.5 0 4.7 2.1 4.7 4.7v9.1L237 16V8h-5.5v29.3h5.5v-8.7Zm-16.8 8.8v7.7H202V.4h7.6v37h10.6Zm-21.4 0v7.7H178V.4h20.8V8h-13.2v10.79h10.5v7.71h-10.5v10.9h13.2ZM166.6.4h7.7L173 45.1h-14.5l-2-18.5-2 18.5H140L139 .4h7.6l.6 37h.8l4.8-37h7.59l4.91 37h.8l.5-37Z"/><path fill="#FFF" d="m384.4 214.7 25.4-74H435l25.7 74h-20.2l-3.7-13.4h-28.6l-3.8 13.4h-20Zm35.7-52.1-7.5 24.5h20.1l-7.5-24.5-1.2-3.6c-.3-1.3-.6-2.5-.8-3.8-.2-.5-.3-.9-.3-1.31-.1-.5-.2-.89-.2-1.29-.1.4-.2.79-.3 1.29-.1.41-.2.81-.2 1.31-.1.19-.1.3-.1.5 0 .1 0 .19-.1.3-.2 1.1-.5 2.3-.8 3.39-.5 1-.8 2.11-1.1 3.21Zm-117.7 52.1v-74h19.5l27.9 38c.7 1.1 1.4 2.3 2 3.5.7 1.2 1.4 2.4 2 3.6l1.4 3c.5 1 .9 2 1.4 2.9l-.3-2.4c-.1-.8-.2-1.6-.2-2.4-.2-1.6-.3-3.2-.3-4.8-.1-1.7-.1-3.3-.1-5v-36.3h19.4v74h-19.4l-28.1-38.2c-.81-.9-1.5-2-2.2-3.3-.7-1.3-1.4-2.7-2-4.1-.4-1-.9-1.9-1.4-2.9-.4-.9-.71-1.9-1.21-2.8.41 2.4.71 4.8.91 7.3.2 2.5.3 5 .3 7.4v36.5h-19.6Zm-88-54.9c3.6-6.6 8.5-11.6 14.9-15.1a40.8 40.8 0 0 1 22.7-5.1c1 .1 2 .2 2.9.2 2.89.4 5.7 1.09 8.5 2.09 2.89 1 5.6 2.31 8.1 3.91a36 36 0 0 1 12.79 14.3c3 5.9 4.5 12 4.5 18.5 0 .8 0 1.6-.09 2.4 0 .8-.1 1.5-.2 2.3-.21 1.7-.5 3.3-.9 4.9-.4 1.6-.9 3.1-1.5 4.6-3.31 7.5-8.31 13.4-15.2 17.5-6.9 4.1-14.11 6.2-21.7 6.2-.5 0-1.1 0-1.6-.1h-1.5c-2.7-.2-5.3-.7-7.9-1.4-2.6-.7-5.1-1.7-7.4-2.9a37.5 37.5 0 0 1-15.3-14.5c-3.7-6.3-5.6-12.9-5.6-19.7 0-1 0-2 .1-3s.2-2.1.5-3.1c.4-2 .9-4.1 1.6-6 .4-2.2 1.3-4.1 2.3-6Zm52.8 26.6.59-2.4c.21-.9.41-1.7.5-2.6.11-.5.11-1.1.11-1.6.1-.5.1-1 .1-1.5s0-.9-.1-1.4v-1.4c-.4-3.3-1.4-6.5-3-9.6a17.94 17.94 0 0 0-6.7-7.2c-.8-.4-1.5-.7-2.3-1-.8-.31-1.5-.6-2.3-.81-.8-.19-1.5-.29-2.3-.29-.8-.21-1.5-.21-2.3-.21-3.9 0-7.6 1.21-10.9 3.71-3.3 2.5-5.7 5.8-7 9.9l-.2.5v.5l-.6 2.2c-.2.7-.3 1.4-.5 2.2l-.2 1.6v2.4c0 .2 0 .5.1.8.2 4.1 1.5 8 3.7 11.7 2.3 3.6 5.5 6 9.5 7.2l1.4.5c.5.1 1 .2 1.5.2l1.4.2h1.4c4.1 0 7.8-1.2 11-3.6 3.3-2.6 5.69-5.9 7.1-10Zm-82.1 21.4a32.6 32.6 0 0 1-11.8 5.1c-4.2.9-8.6 1.5-12.91 1.7-1.19.1-2.5.1-3.69.1h-23.81v-74H158a71.43 71.43 0 0 1 15.9 1.8c4.1.89 7.9 2.7 11.3 5.1 4.3 3 7.7 7 10.1 12 2.4 5 3.8 10.1 4.1 15.3.1.5.1.9.1 1.4v2.9c-.2 5.5-1.5 10.8-3.9 15.9s-6 9.4-10.5 12.7Zm-32.4-9.7c.19 0 .5 0 .69.1h.81c.3 0 .6 0 .8.1h3.1c.9-.1 1.7-.2 2.4-.2 2-.2 4-.5 5.9-1 1.9-.5 3.7-1.4 5.2-2.4 2.5-1.8 4.3-4.2 5.5-7.2 1.2-3.1 1.9-6.3 1.9-9.6v-.9c0-.3 0-.6-.1-.9-.2-2.9-.9-5.8-2.1-8.5-1.2-2.8-2.9-5-5.1-6.6-1.6-1.3-3.5-2.2-5.5-2.7s-4-.7-6-.8h-7.5v40.6Zm-79.9 16.6v-74h45.4v16.1H92.6v13h24v15.8h-24v12.5h25.5v16.6H72.8Zm-59.4-23.8c.1.1.1.2.1.2.1 0 .2 0 .2.1 2.1 2.3 4.5 4.5 7.1 6.5 2.6 1.9 5.7 3 9.1 3.1.1 0 .2 0 .2.1h.3c.1 0 .2 0 .2.1h1.3c.4-.1.69-.2 1-.2a9.6 9.6 0 0 0 3.5-1.4c1.19-.7 2.1-1.5 2.69-2.6l.21-.5.2-.5c.2-.5.3-1 .3-1.5.1-.5.1-.9.1-1.3 0-2.1-.9-3.8-2.81-5.2a20.86 20.86 0 0 0-5.79-3.4c-.8-.3-1.6-.5-2.4-.7l-2.2-.6h-.2c-.1-.1-.2-.1-.2-.1-3.8-.9-7.4-2.4-10.7-4.4-3.3-2.1-5.6-5.1-6.91-8.9-.19-.8-.5-1.6-.69-2.4-.2-.9-.31-1.8-.31-2.7v-3.4c.11-.6.21-1.2.31-1.9.19-1.6.59-3.1 1.19-4.6.5-1.5 1.21-2.9 2.11-4.2 2.5-4.11 5.7-7 9.5-8.8 3.9-1.81 8.1-2.7 12.29-2.7 1 0 2 .1 3 .2 1.11.1 2.21.19 3.31.3 2.8.5 5.6 1.3 8.2 2.3 2.8 1.09 5.3 2.4 7.7 3.8l-6.4 14.29c-2.1-1.5-4.3-2.89-6.6-4.09a15.9 15.9 0 0 0-7.5-1.7h-.9c-1.81.2-3.4 1-5 2.4-1.5 1.3-2.3 2.7-2.3 4.3v.7c.1.2.2.5.3.7.2.5.4 1 .8 1.5s.8.9 1.3 1.3c.9.7 2.1 1.4 3.7 2 1.6.5 3.3 1.1 5.1 1.6 1.5.4 2.9.8 4.3 1.2 1.4.3 2.6.6 3.5.9 4.3 1.5 7.6 4.1 9.8 7.8 2.2 3.6 3.3 7.4 3.4 11.4v.6c0 .5 0 .9-.1 1.4v1.3c-.5 4-1.8 7.9-3.9 11.5-2.1 3.6-4.9 6.4-8.5 8.4-1.3.6-2.7 1.2-4.1 1.6-1.4.4-2.8.7-4.2 1-1.1.2-2.3.4-3.5.5-1.1.2-2.2.2-3.4.2h-1.4c-4.6-.2-9.2-1.2-13.7-3-4.5-1.9-8.5-4.5-12-7.7l9.4-14.8ZM355 338c0-.3.1-.6.2-.9.1-.3.3-.6.5-.8.2-.2.5-.4.8-.6.3-.1.7-.2 1.1-.2.5 0 .9.1 1.3.3.4.2.8.4 1.1.7.2.3.4.6.6 1 .1.4.2.8.2 1.3 0 .9-.2 1.6-.5 2.4-.3.7-.7 1.4-1.3 1.9-.3.3-.5.5-.8.7-.3.2-.6.4-.9.5-.3.1-.5.3-.7.4-.1.1-.2.1-.4.2l-1.4-2c.2-.1.5-.2.8-.4.3-.1.6-.3.9-.5.3-.2.5-.5.7-.8.2-.3.3-.6.3-1-.6 0-1.2-.2-1.7-.6-.6-.3-.8-.8-.8-1.6Zm7.8 0c0-.3.1-.6.2-.9.1-.3.3-.6.5-.8.2-.2.5-.4.8-.6.3-.1.7-.2 1.1-.2.5 0 .9.1 1.3.3.4.2.8.4 1.1.7.2.3.4.6.6 1 .1.4.2.8.2 1.3 0 .8-.1 1.6-.5 2.4-.3.7-.7 1.4-1.3 1.9-.3.3-.5.5-.8.7-.3.2-.6.4-.9.5-.3.1-.5.3-.7.4-.1.1-.2.1-.4.2l-1.3-2c.2-.1.5-.2.8-.4.3-.1.6-.3.9-.5.3-.2.5-.5.7-.8.2-.3.3-.6.3-1-.6 0-1.2-.2-1.7-.6-.7-.3-.9-.8-.9-1.6ZM98.2 279.29c0 .31-.1.61-.2.91-.1.3-.3.59-.5.8-.5.5-1.2.79-1.9.79-.4 0-.9-.09-1.3-.29-.4-.21-.8-.4-1.1-.71-.3-.29-.5-.69-.6-1-.1-.39-.2-.79-.2-1.29 0-.9.2-1.6.5-2.4.3-.7.7-1.4 1.3-1.9a5 5 0 0 1 1.7-1.2c.3-.1.5-.3.7-.4.2-.1.3-.1.4-.2l1.3 2c-.3.1-.6.2-.8.39-.3.11-.6.31-.9.5-.3.21-.5.5-.7.81-.2.3-.3.6-.3 1 .7 0 1.2.19 1.7.6.7.4.9.9.9 1.59Zm-7.8 0c0 .61-.2 1.21-.7 1.71-.2.2-.5.4-.8.6a3.06 3.06 0 0 1-2.4-.1c-.4-.21-.8-.4-1.1-.71-.3-.29-.5-.69-.6-1-.1-.39-.2-.79-.2-1.29 0-.9.2-1.6.5-2.4.3-.7.7-1.4 1.3-1.9.2-.2.5-.5.8-.7.3-.21.6-.4.9-.5.3-.1.5-.3.7-.4.2-.1.3-.1.4-.2l1.3 2c-.2.1-.5.2-.8.39-.3.11-.6.31-.9.5-.3.21-.5.5-.7.81-.2.3-.3.6-.3 1 .7 0 1.2.19 1.7.6.6.4.9.9.9 1.59Zm245.3 56.91h3.8l11.8-20.6h-3.8l-11.8 20.6Zm-.1 1.5c-1.2 0-2.2 1-2.2 2.2 0 1.2.9 2.2 2.2 2.2 1.2 0 2.2-.9 2.2-2.2 0-1.3-1-2.2-2.2-2.2Zm-26.4-5.5 1.09-1.9c4.41-6.1 7.31-4.4 6-2.1l-1.79 3.1c-1.1 1.9-4.5 3.3-5.3.9Zm25.1 2.9c-.2-.6-.9-1.2-1.4-1.3l-.3.3c-1.3 1.6-2.9 2.9-4.5 4.1 1.2-3.6.9-9.1 3.3-14l-2.8-1.5c-1.6 2.09-5 7.1-8.4 11.1l-.3.3c-2.7 3.2-5.4 5.7-7 5.7-.8 0-1.61-.8-1.61-2.5v-1.6c2.71.3 5.5-1.4 7.21-4.5l1-1.7c3.5-6-2.21-8-6.1-4.5l5.39-9.3H315l-10.8 18.7c-.2-.2-.41-.3-.7-.5l-.3.3c-2.7 3.2-6.2 5.7-8.91 5.7-2.29 0-3.69-1.5-2-4.5l3.91-6.8c2.2-3.7 6-3.1 3.8.8l-.5.9h3.1l.5-.9c2-3.5.1-6.11-3-6.11s-5.5 1.61-7.1 4.41l-3.71 6.4c-.09 0-.19-.1-.19-.1l-.31.3c-2.69 3.2-5.39 5.7-7 5.7-.79 0-1.29-.6-.39-2.1l8.1-14.11h-3.8L279 335.5c-2.9 2.6-5.1 4.1-5.8 3.7-.91-.4 0-1.8.5-2.6l7.4-12.9h-3.81L270 336.4c-.8.7-2.4 1.4-3.21 1.9 1.21-3.6.91-9.1 3.31-14.01l-2.81-1.5C265.7 324.9 257 336.5 253.6 340.5c.3.5.9.9 1.4 1.3 2.1-2.5 9.29-11.7 10.7-13.5-1.5 3.9-.7 11-4.3 11-1.3 0-1.8-1.4-1.8-1.4l-2.4 1.2s.7 3 4.09 3c.41 0 .71 0 1.11-.1h.1c1.9-.3 4.6-1.1 6.4-2.4 0 1.5.89 2.5 2.5 2.5 2.1 0 4.39-1.9 6.2-3.6-.4 2 .8 3.6 3.19 3.6 2.31 0 5-1.9 7.41-4.4 0 2.5 2 4.4 5.09 4.4 3.11 0 6.11-1.7 8.71-4l-2.1 3.7h3.8l4.3-7.5v3c0 3.2.6 4.9 3.7 4.9 3.09 0 6.7-3.3 9.8-7 2.1-2.5 4-5.1 5.4-6.9-1.5 3.9-.7 11-4.3 11-1.31 0-1.81-1.4-1.81-1.4l-2.39 1.2s.7 3 4.1 3c.4 0 .7 0 1.1-.1h.1c4-.5 7.8-3.6 10.6-6.9ZM219.7 334h-.2c-1.2 0-2.2 1-2.2 2.3 0 .5.1.9.4 1.3v.1c-1.8 3-6.1 2.5-3.9-1.5l2.9-5 1.8-3.1c2.7-4.5 6.3-2.7 4 1.2l-2.8 4.7Zm-25.4 14.2c-.8 1.4-2.1 1.2-2.1.2s.9-2.1 3.8-3.2l-1.7 3Zm-28.8-13.8c-2.3 3.6-4.5 5.3-6.11 5.3-.79 0-1.29-.6-.39-2.1l5.3-9.2c2-3.5 6.1-2.61 4.2.8l-3 5.2Zm-12-14.7c1.1-1.91 2.39-2.8 3.39-2.8 1.41 0 2.11.89 2.11 2.3 0 3.5-4.4 10.8-10.2 9.9h-.8l5.5-9.4Zm92.8 14.1-.3.3c-2.7 3.2-5.4 5.7-7 5.7-.8 0-1.3-.6-.4-2.1l5.4-9.6c1.6-2.9.1-4.9-2-4.9-1.6 0-3.3.9-5.2 2.8l1.4-2.5h-3.8l-6.1 10.5c-.2-.1-.3-.2-.5-.3l-.3.3a7.79 7.79 0 0 1-5.7 2.8l3.6-6.1c2.3-4 .2-7.7-3.4-7.7-2.9 0-5.2 1.2-7.3 4.9l-1.9 3.2-1.6 2.8c-.1-.1-.2-.1-.3-.2l-.3.3c-3.1 3.6-5.8 5.9-8.8 7.2l10.4-17.7h-3.8l-6.7 11.6c-2.9 2.7-5.2 4.2-5.9 3.9-.9-.4 0-1.8.5-2.6l7.4-12.9h-3.8l-6 10.4c-.1-.1-.2-.1-.3-.2l-.3.3c-2.7 3.2-5.4 5.7-7 5.7-.8 0-1.3-.6-.4-2.1l5.4-9.6c1.6-2.9.1-4.9-2-4.9-1.6 0-3.3.9-5.2 2.8l1.4-2.5h-3.8l-6 10.4c-.1-.1-.2-.1-.4-.2l-.3.3c-2.7 3.2-5.4 5.7-7 5.7-.8 0-1.3-.6-.4-2.1l6.1-10.71h-2.1c.1-1.59-1.5-3.79-4-3.79-2 0-4.9 1.6-6.5 4.4l-3.9 6.7c-.31-.2-.6-.4-.81-.5l-.29.3c-2.71 3.2-4.8 5.7-8.6 5.7-2.61 0-4.11-2.6-1.9-6.4l1.1-1.9c.69.1 1.4.2 2.1.2 4 0 8.59-2.1 11.59-7.3a10 10 0 0 0 1.5-5.1c0-3.4-2.19-5.6-5-5.6-2.09 0-4.5 1.5-6.19 4.4l-5.9 10.1a6.25 6.25 0 0 1-3.41-5.4c0-1.7.81-3.5 2.41-4.81l-1.2-2.19c-2.71 1.9-3.9 4.5-3.9 7 0 3 1.69 5.9 4.8 7.5l-1.11 2c-2.69 4.6-1.09 9.7 4.21 9.7 4.2 0 6.1-1.9 8.7-4.4-.8 2.4.4 4.4 3 4.4 1.5 0 3.4-1 5.2-2.5.2 1.5 1.3 2.5 3.3 2.5 1.8 0 3.8-1.1 5.7-2.8l-1.4 2.4h3.8l5.8-10.1c5.8-7.2 8.4-6.3 6.7-3.5l-4.9 8.5c-1.6 2.8-.5 5.4 2.6 5.4 2 0 4.3-1.4 6.4-3.4-.5 2.1.5 3.4 2.4 3.4 1.8 0 3.9-1.5 5.6-3l-2.1 3.6c-5.1 1.5-8.3 3.6-8.3 6.5 0 3.6 5.6 4.4 8.3-.3l2.9-5c3.2-1 6.3-3 9.5-6.2-.5 5.3 6.5 6.5 10.7 1.1h.8c1.4 0 3.2-.5 4.9-1.5l-2.5 4.4h3.8l5.8-10.1c5.8-7.2 8.4-6.3 6.7-3.5l-4.9 8.5c-1.6 2.8-.5 5.4 2.6 5.4s6.7-3.3 9.8-7c-.1 0-.7-.6-1.2-.8Zm118.6-35.6c-2.3 3.7-4.6 5.5-6.2 5.5-.8 0-1.3-.6-.4-2.1l5.3-9.2c2-3.5 6.1-2.61 4.2.8l-2.9 5Zm-36.2.2c-2.3 3.6-4.5 5.3-6.1 5.3-.81 0-1.31-.6-.4-2.1l5.3-9.2c2-3.5 6.1-2.61 4.2.8l-3 5.2Zm-39.91 13.8c-.79 1.4-2.09 1.2-2.09.2s.9-2.11 3.8-3.2l-1.71 3Zm8-28.5c1.11-1.91 2.41-2.8 3.41-2.8 6 0 1.5 14.39-8.1 12.2h-.81l5.5-9.4Zm77.71 14.09-.3.31c-2.7 3.19-5.4 5.69-7 5.69-.8 0-1.3-.59-.4-2.09l12.8-22.1h-3.8l-5.6 9.6c-.7-1.1-1.9-2-3.5-2-2 0-4.9 1.59-6.5 4.4l-3.7 6.4c-.1 0-.2-.1-.2-.1l-.3.3c-2.7 3.2-5 5.7-6.7 5.7-.8 0-1.3-.61-.4-2.11l5.5-9.59c1.6-2.91.1-4.91-2-4.91-1.6 0-3.3.91-5.2 2.81l1.4-2.5h-3.8l-6 10.4c-.1-.1-.2-.1-.4-.21l-.3.31c-2.7 3.19-5.4 5.69-7 5.69-.8 0-1.3-.59-.4-2.09l6.1-10.7h-2.1c.1-1.6-1.5-3.8-4-3.8-2 0-4.91 1.59-6.5 4.4l-3.7 6.3-.21.2c-2.69 3.19-5.79 5.69-7.39 5.69-.8 0-1.3-.59-.4-2.09l3.79-6.6c1.31-2.31.71-3.6-.5-5.1l-2.09-2.5c-.5-.71-.5-1.5.2-2.21l-2-2.09c-2.11 1.9-2.3 4.09-1 5.8l.3.4c-1.7 2.39-3.91 5.6-6.41 8.5l.31.3c-3.1 3.59-5.81 5.9-8.7 7.2l4.8-8.2h-3.8l-.4.7c-2 3.5-4.3 6-7.21 6-2.59 0-3-2.61-.79-6.4l1.1-1.9c.69.1 1.4.19 2.1.19 13.4 0 19.9-18 8.09-18-2.09 0-4.5 1.5-6.19 4.41l-5.9 10.09a6.2 6.2 0 0 1-3.41-5.39c0-1.7.81-3.5 2.41-4.8l-1.2-2.2c-2.71 1.89-3.9 4.5-3.9 7 0 3 1.69 5.89 4.8 7.5l-1.11 2c-2.69 4.6-2.19 9.7 3.21 9.7 1.6 0 2.9-.5 4.1-1.2l-1 1.7c-5.1 1.6-8.31 3.6-8.31 6.5 0 3.6 5.61 4.4 8.31-.31l2.9-5c3.9-1.19 7.79-3.89 11.9-8.69-.11-.1-.11-.2-.2-.4 1.7-2 3.09-3.91 6-7.7l.5.6c.5.6.7 1.4.2 2.1l-4 6.9c-1.61 2.8-.5 5.4 2.6 5.4 1.9 0 4.29-1.21 6.4-3 0 1.7 1.1 3 3.3 3 1.5 0 3.4-1 5.2-2.5.2 1.5 1.3 2.5 3.3 2.5 1.8 0 3.8-1.1 5.7-2.8l-1.4 2.4h3.8l5.8-10.1c5.8-7.21 8.4-6.3 6.7-3.5l-4.9 8.5c-1.6 2.79-.5 5.4 2.6 5.4 2 0 3.8-1.4 6-3.3-.2 1.9 1 3.3 3.3 3.3 1.5 0 3.4-1 5.2-2.5.2 1.5 1.3 2.5 3.3 2.5 3.1 0 6.7-3.3 9.8-7-.5-.3-1.1-.9-1.6-1.11Zm-112.3-5.29c2.2-3.71 6-3.1 3.8.79l-.5.91c-1.8 3.09-4.3 3-5.71 2.5l2.41-4.2Zm-3 13.6c4.3 0 8.5-3.31 11.7-7-.3-.5-.9-1.1-1.4-1.31l-.3.31c-2.7 3.19-6.2 5.69-8.91 5.69-2.29 0-3.69-1.5-2-4.5l.41-.69c2.4 1 7 .5 9.8-4.4l.5-.91c2-3.5.1-6.09-3-6.09-3 0-5.5 1.59-7.1 4.4l-3.7 6.3s-.1 0-.1-.11l-.3.31c-2.7 3.19-5.4 5.69-7 5.69-.8 0-1.3-.59-.4-2.09l5.4-9.6c1.6-2.9.1-4.9-2-4.9-1.6 0-3.4.9-5.3 2.9l6-10.5h-3.8L237 298.1c-.1-.1-.3-.2-.4-.31l-.3.31c-2.7 3.19-5.4 5.69-7 5.69-.8 0-1.3-.59-.4-2.09l8.1-14.1h3.1l1.1-1.81h-3.1l3.6-6.19h-3.8l-3.6 6.19h-3.4l-1.1 1.81h3.4l-7.6 13.19c-1.6 2.81-.5 5.41 2.6 5.41 1.9 0 3.9-1.2 5.9-3l-1.5 2.59h3.8l5.7-10c5.8-7.29 8.4-6.39 6.8-3.59l-4.9 8.5c-1.6 2.8-.5 5.4 2.6 5.4 2.3 0 4.8-1.81 7.3-4.2.2 2.39 2.2 4.2 5.3 4.2Zm-127.5-13.6c2.19-3.71 6-3.1 3.8.79l-.5.91c-1.8 3.09-4.3 3-5.7 2.5l2.4-4.2Zm23.1 9.2 5.3-9.2c2-3.5 6.1-2.6 4.2.79l-2.91 5.21c-2.29 3.6-4.5 5.29-6.09 5.29-.91-.09-1.41-.59-.5-2.09Zm54-9.2c2.2-3.71 6-3.1 3.8.79l-.5.91c-1.8 3.09-4.2 3-5.7 2.5l2.4-4.2ZM151 302c-.61 2.2.6 4.1 3.1 4.1 1.5 0 3.4-1 5.2-2.5.2 1.5 1.3 2.5 3.3 2.5 2 0 4.2-1.4 6.4-3.31-.4 2 .5 3.31 2.4 3.31 2.1 0 4.4-1.9 6.2-3.6-.4 2 .8 3.6 3.2 3.6 3.1 0 6.7-3.31 9.8-7 0 0-.1-.1-.1-.2 2.1-2.4 3.9-5 5.2-6.8-1.5 3.9-.7 11-4.3 11-1.3 0-1.8-1.4-1.8-1.4l-2.4 1.2s.7 3.1 4.1 3.1c.4 0 .7 0 1.1-.1h.1c2.8-.4 5.5-2.11 7.9-4.2.1 2.5 2 4.3 5.1 4.3 4.3 0 8.5-3.3 11.7-7-.3-.5-.9-1.1-1.4-1.3l-.3.3c-2.7 3.2-6.2 5.7-8.9 5.7-2.3 0-3.7-1.5-2-4.5l.4-.7c2.4 1 7 .5 9.8-4.4l.5-.9c2-3.5.1-6.1-3-6.1s-5.5 1.6-7.1 4.4l-3.7 6.29h-.1l-.3.31c-1.3 1.6-2.9 2.9-4.5 4.1 1.2-3.6.9-9.1 3.3-14l-2.8-1.5c-1.6 2.09-5 7.09-8.4 11.09l.1.11-.1.2c-2.7 3.19-5.4 5.69-7 5.69-.8 0-1.3-.59-.4-2.09l8.1-14.1h-3.8l-6.7 11.69c-2.9 2.61-5.1 4.11-5.8 3.71-.9-.4 0-1.8.5-2.6l7.4-12.9h-3.8l-6 10.4c-.1-.11-.2-.11-.3-.2l-.3.3c-2.7 3.2-5.4 5.7-7 5.7-.8 0-1.3-.6-.4-2.1l6.1-10.7h-2.1c.1-1.61-1.5-3.8-4-3.8-2 0-4.9 1.6-6.5 4.4l-3.81 6.6c-.19-.1-.39-.31-.59-.4l-.3.3c-2.7 3.2-5.9 5.7-8.5 5.7-2.3 0-3.7-1.5-2-4.5l3.89-6.8c2.21-3.7 6-3.11 3.81.8l-.5.9h3.1l.5-.9c2-3.5.09-6.1-3-6.1-3.1 0-5.1 1.6-6.7 4.4l-3.8 6.4c-.1-.11-.2-.11-.3-.2l-.3.3c-2.7 3.2-5.9 5.7-8.6 5.7-2.3 0-3.7-1.5-2-4.5l.4-.7c2.39 1 7 .5 9.8-4.4l.5-.9c2-3.5.09-6.1-3-6.1-3.1 0-5.5 1.6-7.1 4.4l-4 6.79c-2.4 4-.3 7.71 4.1 7.71 3.3 0 6-2 8.8-4.6-.1 2.6 1.9 4.6 5.1 4.6 3.4.1 6.1-1.71 8.8-4Zm-36.9-14 3.1-5.21c2.8-4.79 6.3-2 4.4 1.61-1.5 2.7-3.6 3.6-7.5 3.6Zm-4.1 17.29c-2.3 0-4-.5-5.4-1.29.7-.8 1.3-1.71 1.9-2.71l6.4-11 1 .11c8.8 1.8 5.3 14.89-3.9 14.89Zm9.4-15.5c7.6-2.59 8.2-12.09.7-12.09-2.1 0-4.5 1.5-6.2 4.4l-10.2 17.6c-.4.8-.9 1.5-1.5 2.09-2.6-3.59-1.9-9 1.8-11.29l-1.5-1.9c-7.9 5-5.6 19.6 7.6 19.6 11.3 0 16.5-13.6 9.3-18.41Z"/></g></g></svg>