<svg xmlns="http://www.w3.org/2000/svg" width="64" height="76" fill="none"><path fill="#83B3D3" d="M61.1 22.46H36.3c13.8-6.91 14.9-11.31 14.4-13.71-1.2-4-5.7-7.01-10-5.41-5.6 2.11-7.1 10.41-8.6 16.42-2-6.11-3.8-13.81-8.21-17.72-1.29-1.1-3.09-2.3-5.79-2-4 .4-9.8 5.41-7.5 11.01 2.29 5.4 9.69 8.81 14.6 11.51H2.89A2.9 2.9 0 0 0 0 25.46v11.31c0 1.6 1.3 2.9 2.89 2.9h.3V76H61V39.57h.1c1.6 0 2.9-1.3 2.9-2.9V25.36c0-1.6-1.3-2.9-2.9-2.9ZM42.39 5.85c2.11-.3 5 1.3 5.31 3.2.4 2.8-3.4 5.3-5.1 6.4-2.5 1.7-4.9 2.6-7.3 4.11.9-3.71 2.5-13.01 7.09-13.71Zm-22.89 10c-2.21-1.5-6.5-4.4-6.4-7.8.1-3.61 5.69-6.61 8.79-3.91C25.8 7.55 27.6 15.25 29 20.76c-3.2-1.5-6.3-2.81-9.5-4.91Zm6 57.14H6.1V39.57h19.4v33.42Zm0-36.52H3V25.46h22.5v11.01Zm10.2 0v36.52h-7.2V25.56h7.2v10.91ZM58 72.99H38.6V39.57H58v33.42Zm2.89-36.52H38.6V25.46h22.29v11.01Z"/></svg>