<svg width="74.000000" height="70.000000" viewBox="0 0 74 70" fill="none" xmlns="http://www.w3.org/2000/svg" xmlns:xlink="http://www.w3.org/1999/xlink">
	<desc>
			Created with Pixso.
	</desc>
	<defs/>
	<path d="M5.1 31.5L68.97 31.5C68.97 30.89 69.07 30.3 69.07 29.6L69.07 28.39C68.37 12.7 54.33 0 37.09 0C19.74 0 5.71 12.7 5.01 28.5L5.01 29.7L5.01 29.77C5.01 30.34 5.01 30.92 5.1 31.5ZM37.09 3C52.73 3 65.56 14.3 66.16 28.5L8.02 28.5C8.62 14.39 21.45 3 37.09 3ZM29.27 12.2C30.32 12.2 31.17 11.3 31.17 10.2C31.17 9.09 30.32 8.19 29.27 8.19C28.22 8.19 27.36 9.09 27.36 10.2C27.36 11.3 28.22 12.2 29.27 12.2ZM46.71 10.2C46.71 11.3 45.86 12.2 44.81 12.2C43.76 12.2 42.9 11.3 42.9 10.2C42.9 9.09 43.76 8.19 44.81 8.19C45.86 8.19 46.71 9.09 46.71 10.2ZM38.99 15.3C38.99 16.4 38.14 17.29 37.09 17.29C36.04 17.29 35.18 16.4 35.18 15.3C35.18 14.19 36.04 13.3 37.09 13.3C38.14 13.3 38.99 14.19 38.99 15.3ZM21.05 42.5L15.63 38.39L10.32 42.5L4.11 37.8L5.81 35.3L10.32 38.7L15.63 34.6L21.05 38.7L26.36 34.6L31.67 38.7L36.99 34.6L42.4 38.7L47.71 34.6L53.03 38.7L58.44 34.6L63.75 38.7L68.27 35.3L69.97 37.8L63.75 42.5L58.44 38.39L53.03 42.5L47.71 38.39L42.4 42.5L36.99 38.39L31.67 42.5L26.36 38.39L21.05 42.5ZM70.07 46.7L4.11 46.7C1.8 46.7 0 48.6 0 51L0 54.5C0 56.89 1.9 58.8 4.11 58.8L5.01 58.8L5.01 59.89C5.01 65.39 9.32 70 14.63 70L59.34 70C64.66 70 68.97 65.5 68.97 59.89L68.97 58.8L69.87 58.8C72.18 58.8 73.98 56.89 73.98 54.5L73.98 51C74.18 48.7 72.28 46.7 70.07 46.7ZM71.27 54.5C71.27 55.2 70.67 55.8 70.07 55.8L4.01 55.8C3.3 55.8 2.8 55.2 2.8 54.5L2.8 51C2.8 50.3 3.4 49.7 4.01 49.7L69.97 49.7C70.67 49.7 71.17 50.3 71.17 51C71.27 51 71.27 54.5 71.27 54.5ZM66.16 59.89C66.16 63.8 63.15 66.89 59.44 66.89L14.63 66.89C10.92 66.89 7.91 63.7 7.91 59.89L7.91 58.8L66.16 58.8L66.16 59.89Z" fill="#83B3D3" fill-opacity="1.000000" fill-rule="evenodd"/>
</svg>
