<svg width="75.000000" height="72.000000" viewBox="0 0 75 72" fill="none" xmlns="http://www.w3.org/2000/svg" xmlns:xlink="http://www.w3.org/1999/xlink">
	<desc>
			Created with Pixso.
	</desc>
	<defs/>
	<path d="M72.89 39.3L75 37.2L65.06 27.3L65.06 0L51.1 0L51.1 13.6L37.44 0L0 37.2L2.1 39.3L9.93 31.5L9.93 69.1L5.92 69.1L5.92 72L70.08 72L70.08 69.1L64.95 69.1L64.95 31.5L72.89 39.3ZM62.04 24.39L54.11 16.5L54.11 2.89L62.04 2.89L62.04 24.39ZM62.04 69.1L12.85 69.1L12.85 28.5L37.44 4.1L62.04 28.5L62.04 69.1ZM29.81 27.1C29.81 31.39 33.33 34.8 37.55 34.8C41.86 34.8 45.38 31.3 45.38 27.1C45.38 22.8 41.86 19.39 37.55 19.39C33.33 19.39 29.81 22.8 29.81 27.1ZM37.65 22.1C40.36 22.1 42.67 24.3 42.67 27C42.67 29.7 40.46 31.89 37.65 31.89C34.93 31.89 32.63 29.7 32.63 27C32.63 24.3 34.83 22.1 37.65 22.1ZM19.97 41.2L16.96 41.2L16.96 45.1L19.97 45.1L19.97 41.2ZM25.9 41.2L22.89 41.2L22.89 45.1L25.9 45.1L25.9 41.2ZM29.61 65L45.68 65L45.68 41.2L29.61 41.2L29.61 65ZM52 41.2L48.99 41.2L48.99 45.1L52 45.1L52 41.2ZM57.93 41.2L54.91 41.2L54.91 45.1L57.93 45.1L57.93 41.2ZM32.53 44.1L42.67 44.1L42.67 62.1L32.53 62.1L32.53 44.1ZM19.97 47.2L16.96 47.2L16.96 51.1L19.97 51.1L19.97 47.2ZM25.9 47.2L22.89 47.2L22.89 51.1L25.9 51.1L25.9 47.2ZM52 47.2L48.99 47.2L48.99 51.1L52 51.1L52 47.2ZM57.93 47.2L54.91 47.2L54.91 51.1L57.93 51.1L57.93 47.2Z" fill="#83B3D3" fill-opacity="1.000000" fill-rule="evenodd"/>
</svg>
