<svg xmlns="http://www.w3.org/2000/svg" width="18" height="17" fill="none"><path fill="#000" d="M8.89 17c-.29 0-.59-.1-.79-.4-5.41-6.1-6.71-7.5-7-7.9C.39 7.8 0 6.6 0 5.4 0 2.4 2.39 0 5.5 0 6.8 0 8 .5 9 1.3 10 .5 11.3 0 12.5 0c3 0 5.5 2.4 5.5 5.4 0 1.3-.5 2.5-1.3 3.4l-7.01 7.9c-.19.2-.39.3-.8.3Zm-6-9.5c.3.4 3.5 4 6.11 6.9l6.2-7c.5-.5.69-1.2.69-2 0-1.8-1.5-3.31-3.29-3.31-1 0-2 .51-2.71 1.31-.29.3-.59.4-.89.4-.31 0-.61-.2-.81-.4C7.5 2.6 6.5 2.09 5.5 2.09c-1.81 0-3.31 1.51-3.31 3.31-.09.9.31 1.6.7 2.1Z"/></svg>