<svg width="18.000000" height="18.000000" viewBox="0 0 18 18" fill="none" xmlns="http://www.w3.org/2000/svg" xmlns:xlink="http://www.w3.org/1999/xlink">
	<desc>
			Created with Pixso.
	</desc>
	<defs/>
	<path d="M18 16.5L14.3 12.82C15.3 11.53 16 9.84 16 7.95C16 3.58 12.39 0 8 0C3.6 0 0 3.67 0 8.05C0 12.43 3.6 16.01 8 16.01C9.8 16.01 11.5 15.41 12.89 14.32L16.6 18L18 16.5ZM8 14.02C4.69 14.02 2 11.33 2 8.05C2 4.77 4.69 2.08 8 2.08C11.3 2.08 14 4.77 14 8.05C14 11.33 11.3 14.02 8 14.02Z" fill="#000000" fill-opacity="1.000000" fill-rule="nonzero"/>
</svg>
